# xmcd CD database file
#
# Track frame offsets:
#	183
#	12563
#	25720
#	41555
#	49253
#	62410
#	74300
#	85403
#	99103
#	112625
#	122625
#	135968
#	147860
#	157510
#
# Disc length: 2225 seconds
#
# Revision: 0
# Processed by: cddbd v1.5.2PL0 Copyright (c) Steve Scherf et al.
# Submitted via: Feurio! 1.68 - http://www.feurio.com
#
DISCID=a208af0e
DTITLE=verschiedene - Country Stars
DYEAR=1900
DGENRE=country
TTITLE0=Johnny Cash  - I Walk The Line
TTITLE1=Kenny Rogers and The First Edition  - Ruby (Don't Take Your Love To Town)
TTITLE2=Billy Jo Spears - Blanket On The Ground
TTITLE3=Roger Miller - Do-Wacka-Do
TTITLE4=Freddy Fender  - Silver Wings
TTITLE5=Patsy Cline  - Walking After Midnight
TTITLE6=George Jones  - Tender Years
TTITLE7=Willie Nelson  - You'll Always Have Someone
TTITLE8=Jimmy Dean  - Big Bad John
TTITLE9=Dolly Parton - Release Me
TTITLE10=Patti Page  - Tennessee Waltz
TTITLE11=Waylon Jennings - Crying
TTITLE12=Ned Miller - From A Jack To A King
TTITLE13=Hank Locklin - Send Me The Pillow
EXTD=Favourites FAV004\r\n1992
EXTT0=
EXTT1=
EXTT2=
EXTT3=
EXTT4=
EXTT5=
EXTT6=
EXTT7=
EXTT8=
EXTT9=
EXTT10=
EXTT11=
EXTT12=
EXTT13=
PLAYORDER=
